<mxfile host="app.diagrams.net" modified="2022-10-16T07:43:26.307Z" agent="5.0 (X11; Linux x86_64) AppleWebKit/537.36 (KHTML, like Gecko) Chrome/106.0.0.0 Safari/537.36" etag="2Uqa57Y9lzlLDLhVQT0s" version="20.4.1" type="github">
  <diagram id="80tGr196Fa-lgsA2Blj2" name="ページ1">
    <mxGraphModel dx="1422" dy="773" grid="1" gridSize="10" guides="1" tooltips="1" connect="1" arrows="1" fold="1" page="1" pageScale="1" pageWidth="827" pageHeight="1169" math="0" shadow="0">
      <root>
        <mxCell id="0" />
        <mxCell id="1" parent="0" />
        <mxCell id="Sqe6EC50jNCqqiTLlMlY-1" value="" style="aspect=fixed;html=1;points=[];align=center;image;fontSize=12;image=img/lib/azure2/identity/Azure_Active_Directory.svg;" parent="1" vertex="1">
          <mxGeometry x="170" y="130" width="70" height="64" as="geometry" />
        </mxCell>
        <mxCell id="Sqe6EC50jNCqqiTLlMlY-3" value="" style="aspect=fixed;html=1;points=[];align=center;image;fontSize=12;image=img/lib/azure2/identity/Managed_Identities.svg;" parent="1" vertex="1">
          <mxGeometry x="150" y="600" width="68" height="68" as="geometry" />
        </mxCell>
        <mxCell id="Sqe6EC50jNCqqiTLlMlY-4" value="" style="aspect=fixed;html=1;points=[];align=center;image;fontSize=12;image=img/lib/azure2/compute/Virtual_Machine.svg;" parent="1" vertex="1">
          <mxGeometry x="60" y="550" width="69" height="64" as="geometry" />
        </mxCell>
        <mxCell id="Sqe6EC50jNCqqiTLlMlY-5" value="" style="aspect=fixed;html=1;points=[];align=center;image;fontSize=12;image=img/lib/azure2/storage/Storage_Accounts.svg;" parent="1" vertex="1">
          <mxGeometry x="295" y="630" width="65" height="52" as="geometry" />
        </mxCell>
        <mxCell id="Sqe6EC50jNCqqiTLlMlY-6" value="" style="aspect=fixed;html=1;points=[];align=center;image;fontSize=12;image=img/lib/azure2/general/Resource_Groups.svg;" parent="1" vertex="1">
          <mxGeometry x="450" y="590" width="68" height="64" as="geometry" />
        </mxCell>
        <mxCell id="Sqe6EC50jNCqqiTLlMlY-7" value="" style="aspect=fixed;html=1;points=[];align=center;image;fontSize=12;image=img/lib/azure2/azure_stack/User_Subscriptions.svg;" parent="1" vertex="1">
          <mxGeometry x="112" y="260" width="38" height="36.88" as="geometry" />
        </mxCell>
        <mxCell id="Sqe6EC50jNCqqiTLlMlY-8" value="Azure AD&lt;br&gt;(Tenant A)" style="text;html=1;align=center;verticalAlign=middle;resizable=0;points=[];autosize=1;strokeColor=none;fillColor=none;" parent="1" vertex="1">
          <mxGeometry x="165" y="90" width="80" height="40" as="geometry" />
        </mxCell>
        <mxCell id="Sqe6EC50jNCqqiTLlMlY-9" value="Subscription A" style="text;html=1;align=center;verticalAlign=middle;resizable=0;points=[];autosize=1;strokeColor=none;fillColor=none;" parent="1" vertex="1">
          <mxGeometry x="81" y="230" width="100" height="30" as="geometry" />
        </mxCell>
        <mxCell id="Sqe6EC50jNCqqiTLlMlY-10" value="" style="aspect=fixed;html=1;points=[];align=center;image;fontSize=12;image=img/lib/azure2/azure_stack/User_Subscriptions.svg;" parent="1" vertex="1">
          <mxGeometry x="249" y="260" width="38" height="36.88" as="geometry" />
        </mxCell>
        <mxCell id="Sqe6EC50jNCqqiTLlMlY-11" value="Subscription B" style="text;html=1;align=center;verticalAlign=middle;resizable=0;points=[];autosize=1;strokeColor=none;fillColor=none;" parent="1" vertex="1">
          <mxGeometry x="218" y="230" width="100" height="30" as="geometry" />
        </mxCell>
      </root>
    </mxGraphModel>
  </diagram>
</mxfile>
